<svg width="35" height="38" viewBox="0 0 35 38" fill="none" xmlns="http://www.w3.org/2000/svg">
<path fill-rule="evenodd" clip-rule="evenodd" d="M26.7182 0.10133C26.0729 -0.0991316 25.2459 -0.0186565 24.6761 0.491575C24.1036 0.0035465 23.3052 -0.103718 22.6481 0.101458C21.1491 0.568535 20.6873 2.24242 21.1054 3.50589C21.4418 4.51943 22.1674 5.26824 22.8693 5.75961C23.2216 6.00627 23.5746 6.19294 23.8825 6.31909C24.1788 6.44045 24.4684 6.52034 24.6851 6.52034C24.9031 6.52034 25.1946 6.43843 25.4916 6.31565C25.8007 6.18784 26.1553 5.99924 26.5084 5.75138C27.2112 5.25816 27.9376 4.5092 28.2642 3.50469C28.6816 2.24072 28.216 0.568108 26.7182 0.10133ZM26.0486 1.38073C25.8535 1.36133 25.6791 1.49869 25.6591 1.68752C25.6391 1.87636 25.781 2.04517 25.9761 2.06457C26.1009 2.07698 26.1854 2.12725 26.2409 2.19523C26.2987 2.26601 26.3438 2.37984 26.3382 2.54361C26.3316 2.73333 26.4851 2.89229 26.6812 2.89866C26.8772 2.90503 27.0414 2.75639 27.048 2.56666C27.0583 2.2695 26.9773 1.9884 26.7979 1.76883C26.6163 1.54645 26.3524 1.41094 26.0486 1.38073ZM28.4618 16.9721C28.4576 18.52 28.4532 20.1677 28.1806 21.8654L26.7109 26.327C26.6147 26.5073 26.5132 26.6876 26.406 26.868C18.9804 38.1557 5.38933 28.2383 6.82606 22.7281C7.22278 21.674 8.03241 21.116 8.91473 20.9399L8.9292 21.0288C10.1156 20.8356 11.0707 21.443 11.8647 22.2897C12.2585 22.7096 12.5929 23.1682 12.8783 23.5773C12.9288 23.6497 12.979 23.7223 13.0279 23.7931L13.028 23.7933L13.0282 23.7936C13.1134 23.9168 13.1949 24.0347 13.2682 24.1372C13.3821 24.2963 13.5016 24.4548 13.6179 24.5715L13.8093 24.3806C14.169 24.7209 14.5771 25.0315 15.0574 25.2825C15.5239 25.5476 16.0178 25.7287 16.5117 25.8378C17.6808 26.1829 18.6654 26.085 19.4778 25.7303C21.6909 25.0057 23.1399 21.6703 22.8258 17.9944C22.7902 16.0279 22.2685 14.2868 21.4136 12.8066C21.4171 12.807 21.4206 12.8074 21.4241 12.8078C21.3827 12.7423 21.3411 12.6774 21.2992 12.6132C20.7635 11.73 20.1078 10.9431 19.3662 10.2605C16.1986 7.20691 12.4134 6.78879 10.4076 7.12719C-1.44467 8.21869 -3.56023 25.6879 6.05959 33.9119C13.0569 39.8939 27.9367 39.5573 33.0539 27.6939C34.8519 24.247 34.7373 20.5576 34.5551 14.6957L34.555 14.6921L34.5549 14.6891C34.5344 14.0291 34.513 13.3416 34.4934 12.6238V7.52846C33.2604 7.50949 30.9821 8.05726 29.5635 10.076C29.4089 10.2752 29.267 10.4883 29.1406 10.716C28.6485 11.358 28.1691 12.711 28.4716 15.6689C28.4642 16.0943 28.463 16.5291 28.4618 16.9721Z" fill="#21242D"/>
</svg>
