<svg width="124" height="63" viewBox="0 0 124 63" fill="none" xmlns="http://www.w3.org/2000/svg">
<path d="M62 1.5C79.0615 1.5 94.4837 4.87242 105.622 10.2744C116.603 15.6003 123.266 22.813 123.493 30.5898C113.284 32.5991 105.982 35.5829 100.362 38.9463C94.6687 42.3542 90.723 46.1402 87.2539 49.6484C83.7736 53.168 80.8106 56.3633 77.0322 58.6992C73.2774 61.0204 68.6982 62.5 62 62.5C50.1186 62.5 44.5082 56.41 36.8848 49.2607C29.3041 42.1517 19.8553 34.1475 0.505859 30.585C0.735195 22.8099 7.39895 15.5992 18.3779 10.2744C29.5163 4.87242 44.9385 1.5 62 1.5Z" fill="#161A42" stroke="#161A42"/>
<path d="M124 29.5C84.5081 37.371 87.8125 61 62 61C38.9531 61 37.1129 36.3871 0 29.5C0 13.2982 29.4152 0 62 0C94.5848 0 124 13.2982 124 29.5Z" fill="#030812" style="mix-blend-mode:multiply"/>
</svg>
