<svg width="124" height="62" viewBox="0 0 124 62" fill="none" xmlns="http://www.w3.org/2000/svg">
<path d="M62 1C79.0025 1 94.3473 4.36198 105.404 9.72461C116.135 14.9288 122.531 21.8514 122.975 29.1826C112.936 31.2005 105.702 34.1669 100.105 37.5166C94.3567 40.9575 90.3758 44.7803 86.8984 48.2969C83.3987 51.8362 80.4847 54.9776 76.7695 57.2744C73.1017 59.5419 68.6152 61 62 61C50.3464 61 44.8759 55.069 37.2266 47.8955C29.6648 40.8042 20.2166 32.7973 1.02539 29.1719C1.47482 21.8447 7.87062 14.9263 18.5957 9.72461C29.6527 4.36198 44.9975 1 62 1Z" fill="#070814" stroke="#161A42" stroke-width="2"/>
<path d="M124 28C82.5 36 93.625 15 66.5 15C42.2812 15 39 35 0 28C0 11.5326 27.7583 0 62 0C96.2417 0 124 11.5326 124 28Z" fill="#070814"/>
</svg>
