<svg width="124" height="62" viewBox="0 0 124 62" fill="none" xmlns="http://www.w3.org/2000/svg">
<path d="M62 0.75C79.0321 0.75 94.416 4.11763 105.514 9.5C116.371 14.7658 122.898 21.8333 123.234 29.3857C113.111 31.3994 105.842 34.3748 100.234 37.7314C94.5131 41.1559 90.5494 44.9602 87.0762 48.4727C83.586 52.0022 80.6473 55.1709 76.9004 57.4873C73.1891 59.7816 68.6566 61.25 62 61.25C50.2325 61.25 44.6921 55.2395 37.0557 48.0781C29.4843 40.9778 20.0355 32.9719 0.764648 29.3779C1.10537 21.8284 7.63297 14.764 18.4863 9.5C29.584 4.11763 44.9679 0.75 62 0.75Z" fill="#070814" stroke="#161A42" stroke-width="1.5"/>
<path d="M124 29C86.5 29.5 89.125 12.5 62 12.5C37.7812 12.5 21 29.5 0 29C0 12.5326 27.7583 0 62 0C96.2417 0 124 12.5326 124 29Z" fill="#070814"/>
</svg>
