<svg width="124" height="62" viewBox="0 0 124 62" fill="none" xmlns="http://www.w3.org/2000/svg">
<path d="M62 0.5C79.0615 0.5 94.4837 3.87242 105.622 9.27441C116.603 14.6003 123.266 21.813 123.493 29.5898C113.284 31.5991 105.982 34.5829 100.362 37.9463C94.6687 41.3542 90.723 45.1402 87.2539 48.6484C83.7736 52.168 80.8106 55.3633 77.0322 57.6992C73.2774 60.0204 68.6982 61.5 62 61.5C50.1186 61.5 44.5082 55.41 36.8848 48.2607C29.3041 41.1517 19.8553 33.1475 0.505859 29.585C0.735195 21.8099 7.39895 14.5992 18.3779 9.27441C29.5163 3.87242 44.9385 0.5 62 0.5Z" fill="#070814" stroke="#161A42"/>
<path d="M124 29C86 33.5 89.125 12.5 62 12.5C37.7812 12.5 23.5 33 0 29C0 12.5326 27.7583 0 62 0C96.2417 0 124 12.5326 124 29Z" fill="#070814"/>
</svg>
